<svg width="58" height="19" viewBox="0 0 58 19" fill="none" xmlns="http://www.w3.org/2000/svg">
<path d="M0.133708 0.131944L0 0.263889V18.4722L0.133708 18.6042H13.4757L13.6094 18.4722V15.0417L13.4757 14.9097H3.74382V9.89583H13.4757L13.6094 9.76389V6.33333L13.4757 6.20139H3.74382V3.82639H13.4757L13.6094 3.69445V0.263889L13.4757 0.131944H0.133708Z" fill="white"/>
<path d="M14.0414 6.20139L13.9077 6.33333L18.1864 12.1389L13.6403 18.4722L13.774 18.6042H17.919L18.1864 18.4722L20.3257 15.4375L22.465 18.4722L22.7324 18.6042H26.8774L27.0111 18.4722L22.465 12.1389L26.7437 6.33333L26.61 6.20139H22.465L22.1976 6.33333L20.3257 8.97222L18.4538 6.33333L18.1864 6.20139H14.0414Z" fill="white"/>
<path d="M28.4693 0.131944L28.3356 0.263889V18.4722L28.4693 18.6042H31.9458L32.0795 18.4722V9.89583H40.6368L40.7705 9.76389V6.33333L40.6368 6.20139H32.0795V3.82639H40.7705L40.9042 3.69445V0.263889L40.7705 0.131944H28.4693Z" fill="white"/>
<path d="M41.8276 6.20139L41.6939 6.33333V18.4722L41.8276 18.6042H45.304L45.4377 18.4722V6.33333L45.304 6.20139H41.8276ZM43.4321 0L41.0254 2.375V2.63889L43.4321 5.01389H43.6995L46.1063 2.63889V2.375L43.6995 0H43.4321Z" fill="white"/>
<path d="M48.9067 3.03472L48.773 3.16667V6.20139H46.6337L46.5 6.33333V9.76389L46.6337 9.89583H48.773V13.1944C48.773 16.625 50.5112 19 54.5225 19C55.3782 19 56.742 18.6306 57.464 18.2083V14.6458L57.3303 14.5139C56.2874 15.2528 55.2712 15.4375 54.5225 15.4375C53.4528 15.4375 52.5169 14.9097 52.5169 12.7986V9.89583H57.3303L57.464 9.76389V6.33333L57.3303 6.20139H52.5169V3.19305L52.3831 3.03472H48.9067Z" fill="white"/>
</svg>
