<svg width="14" height="14" viewBox="0 0 14 14" fill="none" xmlns="http://www.w3.org/2000/svg">
<path d="M4.87555 0C6.16863 0 7.40874 0.513672 8.32309 1.42802C9.23743 2.34236 9.7511 3.58247 9.7511 4.87555C9.7511 6.08319 9.30855 7.19331 8.58097 8.04841L8.78349 8.25093H9.37606L13.1265 12.0014L12.0014 13.1265L8.25093 9.37606V8.78349L8.04841 8.58097C7.19331 9.30855 6.08319 9.7511 4.87555 9.7511C3.58247 9.7511 2.34236 9.23743 1.42802 8.32309C0.513672 7.40874 0 6.16863 0 4.87555C0 3.58247 0.513672 2.34236 1.42802 1.42802C2.34236 0.513672 3.58247 0 4.87555 0ZM4.87555 1.50017C3.00034 1.50017 1.50017 3.00034 1.50017 4.87555C1.50017 6.75076 3.00034 8.25093 4.87555 8.25093C6.75076 8.25093 8.25093 6.75076 8.25093 4.87555C8.25093 3.00034 6.75076 1.50017 4.87555 1.50017Z" fill="black" fill-opacity="0.56"/>
</svg>
